# xmcd CD database file
#
# Track frame offsets:
#	150
#	20125
#	47495
#	87353
#	99490
#	140068
#	149180
#	191958
#	233090
#	240870
#	245810
#	269298
#
# Disc length: 3744 seconds
#
# Revision: 0
# Processed by: cddbd v1.5.1PL0 Copyright (c) Steve Scherf et al.
# Submitted via: CDex 1.51
#
DISCID=b20e9e0c
DTITLE=Pago Libre - pago libre
DYEAR=1996
DGENRE=Jazz
TTITLE0=Rochade
TTITLE1=Tupti-Kulai
TTITLE2=Interludi
TTITLE3=Suite "Stream of Cunsciouness" Part I: Source
TTITLE4=Als die Spatlese noch vor sich hingarte
TTITLE5=Suite/Part II: Roots
TTITLE6=Wake Up Call
TTITLE7=J.P.S. (& Carla)
TTITLE8=Suite/Part III: African Flower
TTITLE9=Waltz in 4/4
TTITLE10=Seconds
TTITLE11=Suite/Part IV: Gift
EXTD=YEAR: 1996
EXTT0=
EXTT1=
EXTT2=
EXTT3=
EXTT4=
EXTT5=
EXTT6=
EXTT7=
EXTT8=
EXTT9=
EXTT10=
EXTT11=
PLAYORDER=
